<?xml version="1.0" encoding="UTF-8" standalone="no"?>
<!-- Created with Inkscape (http://www.inkscape.org/) -->

<svg
   xmlns:dc="http://purl.org/dc/elements/1.1/"
   xmlns:cc="http://creativecommons.org/ns#"
   xmlns:rdf="http://www.w3.org/1999/02/22-rdf-syntax-ns#"
   xmlns:svg="http://www.w3.org/2000/svg"
   xmlns="http://www.w3.org/2000/svg"
   xmlns:sodipodi="http://sodipodi.sourceforge.net/DTD/sodipodi-0.dtd"
   xmlns:inkscape="http://www.inkscape.org/namespaces/inkscape"
   width="210mm"
   height="297mm"
   viewBox="0 0 744.09448819 1052.3622047"
   id="svg2"
   version="1.1"
   inkscape:version="0.91 r13725"
   sodipodi:docname="AutomaticNewspaperDownloader_Icon.svg">
  <defs
     id="defs4">
    <inkscape:perspective
       sodipodi:type="inkscape:persp3d"
       inkscape:vp_x="9.4642858 : 523.14539 : 1"
       inkscape:vp_y="0 : 1000 : 0"
       inkscape:vp_z="753.55878 : 523.14539 : 1"
       inkscape:persp3d-origin="381.51153 : 347.75169 : 1"
       id="perspective4140" />
  </defs>
  <sodipodi:namedview
     id="base"
     pagecolor="#ffffff"
     bordercolor="#666666"
     borderopacity="1.0"
     inkscape:pageopacity="0.0"
     inkscape:pageshadow="2"
     inkscape:zoom="0.80675645"
     inkscape:cx="144.27567"
     inkscape:cy="526.67088"
     inkscape:document-units="px"
     inkscape:current-layer="layer1"
     showgrid="false"
     inkscape:window-width="1920"
     inkscape:window-height="1018"
     inkscape:window-x="-8"
     inkscape:window-y="-8"
     inkscape:window-maximized="1" />
  <metadata
     id="metadata7">
    <rdf:RDF>
      <cc:Work
         rdf:about="">
        <dc:format>image/svg+xml</dc:format>
        <dc:type
           rdf:resource="http://purl.org/dc/dcmitype/StillImage" />
        <dc:title></dc:title>
      </cc:Work>
    </rdf:RDF>
  </metadata>
  <g
     inkscape:label="Ebene 1"
     inkscape:groupmode="layer"
     id="layer1">
    <path
       sodipodi:type="spiral"
       style="fill:none;fill-rule:evenodd;stroke:#000000;stroke-width:1px;stroke-linecap:butt;stroke-linejoin:miter;stroke-opacity:1"
       id="path4138"
       sodipodi:cx="341.07144"
       sodipodi:cy="422.00507"
       sodipodi:expansion="1"
       sodipodi:revolution="2.9822538"
       sodipodi:radius="19.133785"
       sodipodi:argument="-18.728653"
       sodipodi:t0="0.17745712"
       d="m 337.83223,420.98703 c 0.0301,-2.43047 2.48248,-3.98459 4.73817,-3.75136 3.26263,0.33736 5.27206,3.65272 4.80061,6.74926 -0.62326,4.09364 -4.82605,6.56878 -8.76035,5.84988 -4.925,-0.89992 -7.87022,-6.00079 -6.89914,-10.77144 1.17181,-5.7568 7.17631,-9.17441 12.78253,-7.94841 6.58896,1.44092 10.48034,8.35231 8.99767,14.79363 -1.70826,7.42139 -9.52864,11.78743 -16.80471,10.04693 -8.25402,-1.97442 -13.09535,-10.7052 -11.0962,-18.8158 2.23976,-9.08681 11.88193,-14.40386 20.8269,-12.14546 7.83799,1.9789 13.43414,9.1686 13.78667,17.19067"
       transform="matrix(4.3403175,-0.88600979,0.88600979,4.3403175,-1615.5253,-905.14891)" />
    <path
       style="fill:none;fill-rule:evenodd;stroke:#000000;stroke-width:3.71620321;stroke-linecap:butt;stroke-linejoin:miter;stroke-miterlimit:4;stroke-dasharray:none;stroke-opacity:1"
       d="M 202.77731,556.82111 C 225.09554,544.84617 512.42264,461.16599 571.88204,356.88064"
       id="path4158"
       inkscape:connector-curvature="0"
       sodipodi:nodetypes="cc" />
    <path
       style="fill:none;fill-rule:evenodd;stroke:#000000;stroke-width:4.78355551px;stroke-linecap:butt;stroke-linejoin:miter;stroke-opacity:1"
       d="m 633.41172,456.7751 c 0,0 -217.76713,58.34499 -357.62413,215.933"
       id="path4162"
       inkscape:connector-curvature="0"
       sodipodi:nodetypes="cc" />
    <text
       xml:space="preserve"
       style="font-style:normal;font-variant:normal;font-weight:normal;font-stretch:normal;font-size:199.34222412px;line-height:100%;font-family:Narkisim;-inkscape-font-specification:'Narkisim, Normal';text-align:center;letter-spacing:0px;word-spacing:0px;writing-mode:lr-tb;text-anchor:middle;fill:#000000;fill-opacity:1;stroke:none;stroke-width:1px;stroke-linecap:butt;stroke-linejoin:miter;stroke-opacity:1"
       x="148.89967"
       y="579.14935"
       id="text4166"
       sodipodi:linespacing="100%"
       transform="matrix(0.91299646,-0.40796748,0.40796748,0.91299646,0,0)"
       inkscape:transform-center-x="9.0977049"
       inkscape:transform-center-y="-7.8514193"><tspan
         sodipodi:role="line"
         id="tspan4168"
         x="148.89967"
         y="579.14935">AND</tspan></text>
    <path
       style="fill:#000000;fill-opacity:1;fill-rule:evenodd;stroke:#000000;stroke-width:2.68010664px;stroke-linecap:butt;stroke-linejoin:miter;stroke-opacity:1"
       d="m 282.68404,534.63223 c 0,0 22.91958,8.59826 32.11922,23.19351 6.57616,10.43309 16.75179,23.87128 16.75179,23.87128 19.36122,-13.30856 45.74687,-29.94855 65.97974,-38.06594 0,0 -5.30281,-19.41039 -12.63324,-30.54411 -9.10015,-13.82145 -16.67803,-12.68595 -16.67803,-12.68595 -18.86871,11.8675 -60.36322,23.73257 -85.53948,34.23121 z"
       id="path4210"
       inkscape:connector-curvature="0"
       sodipodi:nodetypes="csccscc" />
    <path
       style="fill:none;fill-rule:evenodd;stroke:#000000;stroke-width:7.58797503px;stroke-linecap:butt;stroke-linejoin:miter;stroke-opacity:1"
       d="m 394.34235,497.41313 c -0.12397,-1.6059 142.27795,-56.87676 181.89594,-121.38957"
       id="path4212"
       inkscape:connector-curvature="0"
       sodipodi:nodetypes="cc" />
    <path
       style="fill:none;fill-rule:evenodd;stroke:#000000;stroke-width:7.58797503px;stroke-linecap:butt;stroke-linejoin:miter;stroke-opacity:1"
       d="m 401.59066,514.38243 c -0.12397,-1.6059 121.71939,-47.83593 191.86503,-121.00254"
       id="path4212-4"
       inkscape:connector-curvature="0"
       sodipodi:nodetypes="cc" />
    <path
       style="fill:none;fill-rule:evenodd;stroke:#000000;stroke-width:7.58797503px;stroke-linecap:butt;stroke-linejoin:miter;stroke-opacity:1"
       d="m 409.14449,531.6115 c 39.4058,-30.91457 150.60877,-83.16146 197.26689,-118.27037"
       id="path4212-6"
       inkscape:connector-curvature="0"
       sodipodi:nodetypes="cc" />
    <path
       style="fill:none;fill-rule:evenodd;stroke:#000000;stroke-width:7.58797503px;stroke-linecap:butt;stroke-linejoin:miter;stroke-opacity:1"
       d="M 321.55737,604.29738 C 341.28538,584.88739 559.655,449.72662 634.46238,438.29439"
       id="path4212-3"
       inkscape:connector-curvature="0"
       sodipodi:nodetypes="cc" />
    <path
       style="fill:none;fill-rule:evenodd;stroke:#000000;stroke-width:4.42982721px;stroke-linecap:butt;stroke-linejoin:miter;stroke-opacity:1"
       d="m 573.07339,355.82023 c 81.85369,54.53462 59.69329,100.31618 58.96211,102.4261"
       id="path4241"
       inkscape:connector-curvature="0"
       sodipodi:nodetypes="cc" />
    <path
       style="fill:#ffffff;fill-opacity:1;stroke:#000000;stroke-width:0.31166998;stroke-miterlimit:4;stroke-dasharray:none;stroke-opacity:1"
       d="m 239.39403,686.20852 c -27.21278,2.48363 -53.45909,-14.20885 -64.89798,-41.27474 -2.57558,-6.09406 -4.93854,-17.66952 -4.9575,-24.28545 -0.0563,-19.51282 7.4075,-37.1664 21.69343,-51.3114 3.66675,-3.63066 10.26822,-8.61509 14.94567,-11.28491 5.30861,-3.03008 16.80596,-7.31763 23.02916,-8.58801 18.76714,-3.83105 38.20146,-0.0863 54.93428,10.58454 8.68234,5.53702 14.55992,10.78181 20.41566,18.21766 6.79394,8.62727 10.79621,16.41606 14.6168,28.44601 l 0.69982,2.2033 2.14341,-0.71289 c 1.17892,-0.39204 2.35977,-0.98798 2.62411,-1.32451 2.53315,-3.22474 28.11731,-20.80097 53.10428,-36.48238 90.99658,-57.10796 181.87471,-104.74602 231.92138,-121.57239 9.45224,-3.17798 23.22139,-6.87262 23.34556,-6.26431 0.11154,0.54663 -0.79969,6.88014 -1.33724,9.29431 l -0.65468,2.94015 -6.91372,2.10134 c -12.96974,3.94206 -32.90432,10.76462 -45.91529,15.71441 -108.13209,41.13698 -202.09608,98.17821 -272.24975,165.27043 -2.50772,2.39831 -5.87093,5.68852 -7.47378,7.31161 -1.60285,1.62305 -2.98337,2.96515 -3.06784,2.98238 -0.0847,0.0177 0.29725,-1.55929 0.84809,-3.50341 1.26725,-4.47214 2.13736,-10.94864 2.18042,-16.22979 0.0443,-5.45612 -1.92473,-15.56813 -4.056,-20.82838 -7.90445,-19.50785 -25.01409,-33.06255 -44.77254,-35.47012 -5.77742,-0.70394 -10.40105,-0.49751 -16.42229,0.73314 -10.4081,2.12751 -18.74849,6.61937 -26.17989,14.10032 -8.08846,8.14239 -13.11042,19.21499 -13.72595,30.26355 -0.29945,5.37445 1.0703,13.78665 3.02579,18.58305 7.54501,18.50658 25.14202,29.2318 43.37125,26.43451 5.12084,-0.78581 8.70745,-2.04605 13.16479,-4.62572 13.77312,-7.97116 20.5427,-24.10149 15.88952,-37.86099 -2.3684,-7.00333 -5.91977,-11.68229 -11.84948,-15.61172 -5.87111,-3.89059 -11.67136,-5.07787 -18.2481,-3.73531 -9.84684,2.01007 -17.11645,9.91896 -17.38746,18.91641 -0.12364,4.09941 -0.16309,4.0428 2.45922,3.50746 l 2.27249,-0.4639 -0.11568,-1.77596 c -0.39825,-6.10177 4.38872,-12.58079 11.04183,-14.94535 9.80466,-3.48459 20.29499,1.28682 25.9719,11.81307 1.84829,3.42726 2.9732,9.77808 2.48539,14.03346 -1.09579,9.56334 -6.79765,17.70101 -15.99752,22.83191 -3.58909,2.00166 -10.60452,3.72615 -15.18513,3.73279 -13.41614,0.0177 -25.97815,-8.25551 -32.42625,-21.36005 -5.90696,-12.0047 -4.96961,-26.87124 2.44238,-38.73719 3.04759,-4.87889 5.80082,-7.89227 10.68767,-11.69759 10.12575,-7.88482 22.36913,-11.20502 34.91284,-9.46777 6.83425,0.94648 13.12323,3.24284 19.00298,6.9387 17.1648,10.78933 26.75364,30.65189 24.60627,50.96986 -0.54113,5.12035 -2.19524,11.51945 -4.06387,15.72164 -2.68567,6.03971 -4.34016,8.50026 -9.48918,14.11192 -2.79535,3.04661 -5.43703,6.0134 -5.87035,6.5929 -2.02023,2.70154 -11.56651,8.59914 -17.91795,11.06957 -4.49334,1.74769 -12.14264,3.58125 -16.66085,3.99362 z"
       id="path4245"
       inkscape:connector-curvature="0" />
    <path
       style="fill:#ffffff;fill-opacity:1;stroke:#000000;stroke-width:0.31166998;stroke-miterlimit:4;stroke-dasharray:none;stroke-opacity:1"
       d="m 320.14984,595.52159 c -3.13987,-7.61784 -8.4398,-16.23249 -13.80875,-22.44487 -15.04705,-17.41114 -35.04365,-27.74862 -57.03677,-29.48595 l -4.56334,-0.36059 11.52658,-4.08985 c 151.48898,-53.75094 249.84612,-104.92178 296.80016,-154.4119 6.26465,-6.60301 10.57993,-11.93834 15.48516,-19.14548 l 4.59834,-6.75629 1.43274,0.88282 c 6.06284,3.7359 19.58551,14.51101 26.78319,21.34144 10.58219,10.04215 19.17871,21.17007 24.24332,31.38201 3.5134,7.08408 4.92132,11.38128 6.60693,20.16537 l 0.43234,2.2512 -1.35438,0.0222 c -3.21153,0.0509 -21.47424,5.38347 -32.81447,9.58123 -38.27234,14.16693 -93.17619,41.64006 -157.86,78.99087 -47.91672,27.66887 -98.08478,59.32986 -115.33596,72.78839 l -3.66387,2.85838 -1.47087,-3.56861 -8e-5,0 z m 18.71481,-16.97971 c 20.91588,-14.05557 42.40915,-26.4144 56.06395,-32.23722 l 4.17764,-1.78154 -0.34021,-1.66642 c -0.52534,-2.57347 -4.18815,-13.05953 -6.3673,-18.22865 -6.433,-15.25952 -14.81295,-24.64238 -22.84263,-25.57653 -1.38565,-0.16127 -1.90943,0.031 -5.44112,2.0192 -8.98169,5.05076 -21.19827,10.01122 -50.24758,20.40266 -22.52424,8.05738 -34.75136,12.74781 -34.61781,13.27979 0.031,0.13475 1.12907,0.62531 2.43411,1.09115 5.91927,2.11281 15.39851,7.27985 20.53769,11.19498 5.66354,4.31451 8.63497,7.54173 13.05351,14.17712 6.04038,9.0708 15.64428,22.38459 16.08263,22.29511 0.0885,-0.0177 3.4665,-2.25438 7.50709,-4.96965 z m 74.47214,-45.25701 c 0.7362,-0.58701 4.10051,-2.98045 7.47627,-5.31881 14.94481,-10.35203 37.68931,-23.70884 83.39526,-48.97405 56.66798,-31.32485 78.84229,-44.43058 98.79887,-58.39336 5.23793,-3.66471 5.71166,-4.09095 5.32675,-4.79214 -0.56083,-1.02205 -4.0661,-5.47549 -4.27577,-5.43265 -0.0903,0.0177 -2.30319,1.55513 -4.91706,3.41481 -17.88476,12.72442 -39.3246,25.42291 -96.20734,56.98202 -46.7295,25.92598 -63.88392,35.86814 -79.62531,46.14809 -6.89786,4.50473 -15.8155,10.81878 -16.28674,11.53177 -0.32072,0.48501 3.97971,6.10505 4.57786,5.98296 0.21929,-0.0448 1.00102,-0.56152 1.73721,-1.14864 z m 0.20998,-20.24747 c 75.16725,-33.78031 129.84708,-67.39012 169.94105,-104.45674 8.03611,-7.4294 12.71272,-12.33131 12.33278,-12.92698 -0.87746,-1.37569 -5.00113,-4.80885 -5.43987,-4.52902 -0.26313,0.16789 -2.0348,1.88316 -3.93684,3.81169 -9.35911,9.48949 -24.08771,22.1618 -37.50375,32.2677 -35.9196,27.05722 -78.8877,51.65875 -133.24523,76.28992 -14.62617,6.62759 -15.56055,7.06331 -16.04855,7.4841 -0.6393,0.55143 -1.86468,3.3395 -1.59402,3.62722 0.12845,0.13641 1.61303,0.0975 3.29929,-0.0863 1.68625,-0.18426 3.21946,-0.27906 3.40698,-0.21174 0.18738,0.0673 0.0807,0.83003 -0.23699,1.69458 -0.46568,1.26712 -0.46425,1.49963 0.008,1.19882 0.32205,-0.20555 4.37977,-2.07854 9.01755,-4.1628 z m -1.82922,-19.45185 c 45.1978,-20.62772 78.1384,-38.45086 106.14939,-57.43413 27.87424,-18.89056 48.39573,-37.79222 59.37874,-54.69176 l 2.22761,-3.4277 -3.18558,-2.08792 -3.18561,-2.08795 -1.84246,2.72084 c -16.24997,23.99637 -46.23667,48.19036 -92.15631,74.35377 -21.3127,12.14321 -41.18516,22.14005 -71.10271,35.7682 -7.96793,3.62957 -15.03656,6.9728 -15.70808,7.42939 -1.20828,0.82155 -1.84524,2.04539 -1.62531,3.12264 0.0807,0.39558 0.83176,0.49267 2.59155,0.33576 1.36274,-0.12181 2.97361,-0.22326 3.57952,-0.22591 l 1.10182,-0.005 -0.54783,1.2353 c -0.72933,1.64458 -0.62801,1.87302 0.5745,1.29489 0.556,-0.26712 6.74383,-3.10253 13.75081,-6.30042 z"
       id="path4247"
       inkscape:connector-curvature="0" />
    <path
       style="fill:#000000;fill-opacity:1;stroke:#000000;stroke-width:0.00539584;stroke-miterlimit:4;stroke-dasharray:none;stroke-opacity:1"
       d="m 397.09182,499.96912 c -0.002,-0.013 -0.003,-0.0412 -1.4e-4,-0.0625 0.0227,-0.20392 0.12796,-0.51644 0.34182,-1.01456 0.17548,-0.40872 0.66489,-1.50323 0.66634,-1.49021 8.9e-4,0.008 -0.0131,0.20562 -0.0312,0.43912 l -0.0328,0.42454 -0.13965,0.39341 -0.13966,0.3934 -0.13838,0.23775 c -0.1211,0.20808 -0.15229,0.25597 -0.24993,0.38379 -0.0614,0.0803 -0.14766,0.18495 -0.19178,0.23251 l -0.0802,0.0865 -0.004,-0.0237 z"
       id="path4249"
       inkscape:connector-curvature="0" />
    <path
       style="fill:#000000;fill-opacity:1;stroke:#000000;stroke-width:0.00539584;stroke-miterlimit:4;stroke-dasharray:none;stroke-opacity:1"
       d="m 397.03581,500.31387 c -0.093,-0.0236 -0.17359,-0.0874 -0.21347,-0.16872 -0.10021,-0.20443 -0.0234,-0.5464 0.2902,-1.29139 0.035,-0.0832 0.17834,-0.40982 0.3185,-0.72583 0.14016,-0.31601 0.25926,-0.58505 0.26467,-0.59787 l 0.01,-0.0233 -0.53634,0.005 c -0.67544,0.006 -0.89438,0.014 -1.70043,0.0627 -0.60295,0.0364 -1.24692,0.0841 -2.03028,0.15041 -0.8484,0.0718 -1.01639,0.0811 -1.47222,0.0817 -0.35296,4.4e-4 -0.43897,-0.003 -0.63681,-0.0277 -0.4994,-0.0616 -0.75521,-0.22295 -0.81431,-0.51375 -0.0313,-0.15389 -0.0378,-0.22977 -0.038,-0.44417 -2.4e-4,-0.22508 0.007,-0.30019 0.0449,-0.49302 0.14667,-0.73798 0.61103,-1.46126 1.31366,-2.04611 l 0.0715,-0.0595 5.40482,0 5.40481,0 0,1.82315 0,1.82315 -0.68643,0.3144 c -1.76498,0.80842 -3.61265,1.65907 -3.98008,1.8324 -0.33936,0.16008 -0.52268,0.23361 -0.6948,0.27867 -0.0803,0.021 -0.10545,0.0246 -0.18853,0.0266 -0.064,0.002 -0.10759,-6e-4 -0.13114,-0.007 l -7e-5,0 z m 0.0571,-0.33435 c -0.002,-0.005 -0.004,-0.004 -0.004,0.004 -3e-4,0.007 10e-4,0.0113 0.004,0.009 0.002,-0.002 0.003,-0.008 5.4e-4,-0.0131 l 0,0 z m 0.13227,-0.11855 c 0.009,-0.009 0.0145,-0.0171 0.0127,-0.0171 -0.002,0 -0.0107,0.008 -0.0195,0.0171 -0.009,0.009 -0.0145,0.0171 -0.0127,0.0171 0.002,0 0.0107,-0.008 0.0195,-0.0171 z m 0.0342,-0.0411 c 0.009,-0.009 0.0145,-0.0171 0.0127,-0.0171 -0.002,0 -0.0107,0.008 -0.0195,0.0171 -0.009,0.009 -0.0145,0.0171 -0.0127,0.0171 0.002,0 0.0107,-0.008 0.0195,-0.0171 z m 0.0283,-0.036 c 0.009,-0.0109 0.008,-0.0111 -0.003,-0.003 -0.007,0.005 -0.012,0.0106 -0.012,0.012 0,0.006 0.006,0.002 0.0146,-0.009 z m 0.20364,-0.2686 c 0.0225,-0.0401 0.0138,-0.0337 -0.0163,0.0118 -0.0143,0.0217 -0.0199,0.0341 -0.0126,0.0276 0.007,-0.007 0.0203,-0.0242 0.0288,-0.0394 z m 0.47318,-1.82503 c 0,-0.004 -0.003,-0.002 -0.007,0.003 -0.004,0.006 -0.007,0.0134 -0.007,0.0171 0,0.004 0.003,0.002 0.007,-0.003 0.004,-0.006 0.007,-0.0134 0.007,-0.0171 z m 0.034,-0.0753 c 0,-0.004 -0.004,8.6e-4 -0.01,0.0103 -0.005,0.009 -0.01,0.0202 -0.01,0.024 0,0.004 0.004,-8.6e-4 0.01,-0.0103 0.005,-0.009 0.01,-0.0202 0.01,-0.024 z m 0.0342,-0.0753 c 0,-0.004 -0.006,0.004 -0.0131,0.0171 -0.007,0.0132 -0.0131,0.0271 -0.0131,0.0308 0,0.004 0.006,-0.004 0.0131,-0.0171 0.007,-0.0132 0.0131,-0.027 0.0131,-0.0308 z m 0.0682,-0.13303 c 0.005,-0.003 0.008,-0.0142 0.006,-0.0249 -0.002,-0.0159 -0.008,-0.005 -0.0365,0.0584 -0.043,0.0979 -0.0462,0.1104 -0.008,0.0323 0.0162,-0.0332 0.0333,-0.0628 0.0382,-0.0658 z m -0.001,0.056 c -0.002,-0.007 -0.003,-10e-4 -0.003,0.012 0,0.0132 10e-4,0.0186 0.003,0.012 0.002,-0.007 0.002,-0.0174 0,-0.024 z m -0.23726,-0.26191 0.25824,0 0.003,-0.0394 c 0.002,-0.0217 0.003,-0.04 0.002,-0.0408 -0.002,-0.002 -1.05315,0.0797 -1.06876,0.0832 -0.008,0.002 0.11237,0.002 0.26646,5e-5 0.15409,-0.002 0.39636,-0.003 0.53839,-0.003 z"
       id="path4251"
       inkscape:connector-curvature="0" />
    <path
       style="fill:#000000;fill-opacity:1;stroke:#000000;stroke-width:0.00539584;stroke-miterlimit:4;stroke-dasharray:none;stroke-opacity:1"
       d="m 397.20462,497.19652 c 0.009,-0.001 0.19738,-0.0164 0.4177,-0.0333 0.22031,-0.0169 0.42339,-0.0328 0.45127,-0.0352 l 0.0507,-0.004 -0.004,0.0329 c -0.002,0.0181 -0.005,0.0335 -0.006,0.0342 -9.3e-4,7.3e-4 -0.20968,0.003 -0.46389,0.005 -0.25422,0.002 -0.45451,0.002 -0.44509,9.8e-4 z"
       id="path4253"
       inkscape:connector-curvature="0" />
    <path
       style="fill:#000000;fill-opacity:1;stroke:#000000;stroke-width:0.00539584;stroke-miterlimit:4;stroke-dasharray:none;stroke-opacity:1"
       d="m 397.02839,500.31262 c -0.09,-0.0242 -0.16512,-0.0843 -0.20383,-0.16297 -0.0763,-0.15514 -0.0553,-0.36525 0.0752,-0.74933 0.0943,-0.27765 0.18189,-0.48738 0.55746,-1.33507 0.13223,-0.29844 0.24042,-0.54599 0.24042,-0.5501 0,-0.009 -0.79355,-0.003 -1.16408,0.008 -0.68414,0.0206 -1.74839,0.0905 -3.11904,0.20489 -0.7848,0.0655 -0.93163,0.0742 -1.34553,0.0798 -0.4047,0.005 -0.62609,-0.006 -0.85937,-0.046 -0.34051,-0.0579 -0.55252,-0.17465 -0.64712,-0.35648 -0.0308,-0.0591 -0.0523,-0.14277 -0.0731,-0.28331 -0.0174,-0.11804 -0.0173,-0.48974 2.1e-4,-0.61283 0.0481,-0.33856 0.14091,-0.62998 0.30193,-0.9484 0.2399,-0.47442 0.58211,-0.89393 1.04637,-1.28273 l 0.0668,-0.056 5.40606,0 5.40605,0 0,1.82391 0,1.8239 -0.83368,0.38215 c -1.7757,0.81394 -3.15192,1.44744 -3.73361,1.71864 -0.35297,0.16457 -0.46664,0.21435 -0.59915,0.26238 -0.1897,0.0688 -0.28873,0.0904 -0.41004,0.0897 -0.0425,-2.5e-4 -0.092,-0.005 -0.11199,-0.0101 z m 1.07279,-2.92017 c 0,-0.006 -0.004,-0.003 -0.01,0.007 -0.0129,0.0225 -0.013,0.0336 -2.2e-4,0.0167 0.006,-0.007 0.01,-0.0179 0.01,-0.0236 l 0,0 z m -0.90504,-0.19644 c -0.007,-0.002 -0.0189,-0.002 -0.0274,-1.4e-4 -0.009,0.002 -0.003,0.003 0.0119,0.003 0.0151,8e-5 0.022,-10e-4 0.0155,-0.003 l 0,0 z m 0.92157,-4.3e-4 c 0.002,-0.003 -0.0558,-0.004 -0.12798,-0.003 -0.2448,0.003 -0.26871,0.006 -0.0717,0.007 0.10805,8e-4 0.19789,-8.6e-4 0.19964,-0.004 z"
       id="path4255"
       inkscape:connector-curvature="0" />
    <path
       style="fill:#000000;fill-opacity:1;stroke:#000000;stroke-width:0.03052346;stroke-miterlimit:4;stroke-dasharray:none;stroke-opacity:1"
       d="m 404.43823,516.78493 c -6.2e-4,-0.0147 0.10253,-0.33716 0.22923,-0.71661 0.35208,-1.05439 0.43457,-1.63287 0.26029,-1.82545 -0.09,-0.0994 -0.0482,-0.12334 0.21565,-0.12334 0.19938,0 0.22604,0.009 0.20882,0.0678 -0.0109,0.0373 -0.0746,0.41641 -0.14155,0.8425 l -0.12181,0.77471 -0.21912,0.38735 c -0.19508,0.34484 -0.42843,0.66555 -0.43151,0.59306 z"
       id="path4257"
       inkscape:connector-curvature="0" />
    <path
       style="fill:#000000;fill-opacity:1;stroke:#000000;stroke-width:0.00381543;stroke-miterlimit:4;stroke-dasharray:none;stroke-opacity:1"
       d="m 409.97445,532.6823 c -0.16368,-0.19563 -0.41871,-0.51098 -0.61069,-0.75515 -0.22773,-0.28963 -0.64605,-0.84206 -0.64127,-0.84684 0.001,-0.001 0.29164,0.36601 0.64502,0.81643 0.35338,0.45042 0.64157,0.81988 0.64043,0.82102 -0.001,10e-4 -0.0162,-0.0148 -0.0335,-0.0355 z"
       id="path4259"
       inkscape:connector-curvature="0" />
  </g>
</svg>
